# xmcd CD database file
#
# Track frame offsets:
#	150
#	19500
#	35592
#	57747
#	79545
#	90923
#	113938
#	125389
#	139883
#	165481
#	180834
#	204904
#	239499
#	252772
#	267487
#	282126
#	298192
#	314496
#	325503
#	338921
#
# Disc length: 4698 seconds
#
# Revision: 11
# Processed by: cddbd v1.5.2PL0 Copyright (c) Steve Scherf et al.
# Submitted via: CDex 1.51
#
DISCID=18125814
DTITLE=Various Artist - All Jazz  (Jazz Legends)  [CD 3-5]
DYEAR=2007
DGENRE=Jazz
TTITLE0=Perico Sambeat and Brad Mehldau - Mirall
TTITLE1=Clare Teal and Jamie Cullum - The Road Less Travelled
TTITLE2=Herbie Hancock Feat. Chaka Khan - The Essence
TTITLE3=Sofi Hellborg and Tony Allen - To Give Is To Get
TTITLE4=Ella Fitzgerald and Louis Armstrong - Necessary Evil
TTITLE5=Kyle Eastwood - Muse
TTITLE6=Moles Davis - Move
TTITLE7=Isa Sand and Nils Landgren - Use Me
TTITLE8=Andre Ceccarelli - Walk On The Wild Side
TTITLE9=Esbjorn Svensson Trio - O.D.R.I.P
TTITLE10=Marcus Miller - Bruce Lee
TTITLE11=Michel Petrucciani - Summertime
TTITLE12=Sonny Rollins - The Stopper
TTITLE13=Charlie Parker - Now's The Time
TTITLE14=Stan Getz - I've Got You Under My Skin
TTITLE15=Glenn Miller - In The Mood
TTITLE16=Errol Garner - I'm The Mood For Love
TTITLE17=Count Basie - Louisiana
TTITLE18=Fat Waller - Ain't Misbehavin
TTITLE19=Miles Davis and Charlie Parker - Cheryl
EXTD=YEAR: 2007
EXTT0=
EXTT1=
EXTT2=
EXTT3=
EXTT4=
EXTT5=
EXTT6=
EXTT7=
EXTT8=
EXTT9=
EXTT10=
EXTT11=
EXTT12=
EXTT13=
EXTT14=
EXTT15=
EXTT16=
EXTT17=
EXTT18=
EXTT19=
PLAYORDER=
